M48
;Layer_Color=9474304
;FILE_FORMAT=4:4
METRIC,LZ
;TYPE=PLATED
T1F00S00C0.2540
T2F00S00C0.3048
T3F00S00C0.3810
T4F00S00C0.5080
T5F00S00C0.9000
;TYPE=NON_PLATED
T6F00S00C3.2000
%
T01
X0009129Y00123594
X0009129Y0016368
X001143Y00160655
Y0015367
X0011176Y0014351
X0014097Y00160655
Y00172085
Y001905
X0014732Y00211455
X0015769Y0020299
X00124035
X00116205Y0020701
X001143Y0019558
Y00187325
X0009129Y0019192
X00073025Y0025908
X00131445Y0026035
T02
X00290703Y0004572
X00236855Y0015621
X00247015Y0024003
X0025908Y00287185
X0027432Y0028782
X0020081Y0025542
X00192405Y00215265
X001651Y002286
X0013397Y00231125
X0016241Y00269367
X0015875Y0029671
X00146685Y0028575
X00035179Y00259715
X00052047Y0023988
X00050673Y00187071
X00051054Y00154686
X00043536Y0014793
X0003571Y0015621
X0001397Y0016383
X00007239Y00223139
X0007874Y00157607
X0008255Y0014351
X0012171Y0014499
X00160401Y00137559
X0010556Y00104798
X00096012Y00172974
T03
X0030242Y0011954
X0032242Y0011922
X00291465Y0008128
X00188976Y0014097
X00200025Y0016637
X001778Y0018034
X0014351Y0013208
X0012827Y00132715
Y00092075
X00130175Y00066675
X0009144Y00065405
X00037465Y0007874
X00083185Y0021971
X0021971Y0025654
X0022098Y003691
X0013208Y0036783
T04
X0004503Y-00007802
X00044931Y00033936
X00177954Y00034317
X0017711Y-00008945
T05
X0022098Y-000127
X0024638
X0027178
T06
X0Y0
X0035Y-0
X0035Y0035
X0
M30
